#!OML:ASF E:/inclinewalkrobotboard/Project1/Captureday1/Session1/subject1.ASF
:FULLY-SPECIFIED
:DEGREES
263
root 0 0 0 14.310674865155335 42.47947263047173 0.35526710614899315
lowerback -10.127968459851354 -4.545619706503825 -4.689816961460457
upperback -11.337408718018867 -5.635550299823841 8.761284342003194
thorax -5.470250104363787 -2.0894643895255873 12.087333778303716
lowerneck -3.0445712651663692 -9.76144524650006 -8.307692331368827
upperneck 32.78952493758297 -12.19465192136922 -0.049321284567580115
head 11.89480520500394 -6.334698019002491 -0.2248950406753525
rclavicle -4.243882815361851E-15 5.091784020084096E-15
rhumerus 159.1671728340885 7.078302745650628 -197.02681578041407
rradius 15.22653314907964
rwrist 85.04222759304795
rhand -17.1062039975061 8.136947473227185
rfingers 7.125020000000012
rthumb 9.083774075242163 -21.735880918884494
lclavicle 3.870643511761651E-15 -1.8718161376475955E-15
lhumerus 84.81477653418705 33.63529717013954 16.023201453376984
lradius 45.48227947085332
lwrist -19.341320007333486
lhand -10.91783124658514 13.748400177288966
lfingers 7.125019999999975
lthumb 15.058389972695878 43.08250246927236
rfemur 154.15892862076333 -209.57483849033383 -182.8006914045764
rtibia 53.005421807654756
rfoot -73.03325357217997 -16.061767275105808
rtoes 59.87899352967497
lfemur -89.210597499032 22.664174926719852 -54.105255490260646
ltibia 75.14688720889183
lfoot -6.991030613216395 32.543897940279614
ltoes 7.349498578881923
264
root 0 0 0 14.053138972849963 42.42764944160278 0.5255272425801412
lowerback -10.012550359371662 -4.550584206090154 -4.732701244004381
upperback -11.27560475164979 -5.639939645407966 8.726297275168223
thorax -5.477577565278058 -2.0839769819683625 12.071630173848032
lowerneck -3.0587052600064224 -9.745899601818223 -8.27529299781596
upperneck 32.79060087632869 -12.169762918955463 -0.0785795018598745
head 11.893499198130407 -6.324379171918114 -0.23592616437312075
rclavicle -4.282005925612935E-15 5.1902149980776425E-15
rhumerus 158.77431777255418 7.223223413052775 -197.3680926811452
rradius 15.008132044493152
rwrist 85.31380343204364
rhand -17.093596595367856 8.156730560593074
rfingers 7.125020000000012
rthumb 9.095462479474392 -21.711320730171636
lclavicle 4.058771009714392E-15 -1.5223362963466204E-15
lhumerus 84.65867257302115 33.79459515825485 15.890710678020671
lradius 44.5941541096537
lwrist -19.685641509095426
lhand -11.382909542108608 14.092527237445072
lfingers 7.1250199999999735
lthumb 14.61044628620002 43.500496168148544
rfemur 153.88500211719617 -209.21720916838862 -182.55179817758028
rtibia 51.98902814268152
rfoot -74.6592751250999 -15.1440265169627
rtoes 59.730439134345644
lfemur -89.22104097641505 22.632721713901276 -54.347049330736674
ltibia 75.0731985386405
lfoot -6.0111071003309675 32.50937953209546
ltoes 6.970861731778361
265
root 0 0 0 13.735399770841779 42.34315625294842 0.7409057260813245
lowerback -9.871284143104152 -4.556655606310489 -4.789027488240952
upperback -11.199686806096251 -5.645458228342988 8.681253623825695
thorax -5.486884945228573 -2.0769101873905065 12.0522304640788
lowerneck -3.0777688027875705 -9.725323049221855 -8.233754538605956
upperneck 32.791398324972924 -12.137776147476522 -0.11346282869640278
head 11.89175172803866 -6.310826404028752 -0.24912636725911996
rclavicle -4.368318341148024E-15 5.286733057229368E-15
rhumerus 158.34062722607018 7.389312640764121 -197.7456065219698
rradius 14.768603142457199
rwrist 85.60903620105417
rhand -17.07564979679094 8.177703302124161
rfingers 7.125020000000012
rthumb 9.112295250707003 -21.684169279137375
lclavicle 4.208205394419403E-15 -1.1523354354794412E-15
lhumerus 84.40515053897363 33.98502680876941 15.725123235016131
lradius 43.519102293661845
lwrist -20.102075643302864
lhand -11.935008592432673 14.499183947998516
lfingers 7.125019999999972
lthumb 14.078554610241193 43.99461352244567
rfemur 153.6612588427983 -208.89740089406018 -182.31224144190935
rtibia 51.00882546969508
rfoot -76.12356380251 -14.22010460079175
rtoes 59.5570685430247
lfemur -89.21123821372686 22.584997543722892 -54.63758405785708
ltibia 74.98464008009708
lfoot -4.916782962326305 32.47460906629435
ltoes 6.532018368186127
266
root 0 0 0 13.342193770672688 42.21029180292007 1.0138087027684897
lowerback -9.698137051426757 -4.564220109939079 -4.862788466340158
upperback -11.106338275559446 -5.65260175366959 8.623264547918152
thorax -5.498810035913912 -2.0679105638687227 12.028191446672043
lowerneck -3.1036605426776713 -9.698262341327826 -8.180760647518317
upperneck 32.79095394334995 -12.096870078970573 -0.15437112287824828
head 11.889204750754992 -6.2931245529705375 -0.2646981498937011
rclavicle -4.513395179938994E-15 5.377118163379133E-15
rhumerus 157.87259266350284 7.574585029482034 -198.1479825501725
rradius 14.514656843420374
rwrist 85.91950710038782
rhand -17.051659218555315 8.199659904264134
rfingers 7.125020000000012
rthumb 9.134985816499697 -21.654480045086416
lclavicle 4.290506026893809E-15 -7.741689241558498E-16
lhumerus 84.00997963321953 34.21139362414132 15.525803121522774
lradius 42.24501676743567
lwrist -20.596588920022548
lhand -12.573092529914375 14.969113807637168
lfingers 7.12501999999997
lthumb 13.46364839725423 44.56570195126689
rfemur 153.51531780485277 -208.64606119935712 -182.10177850552373
rtibia 50.11636011597169
rfoot -77.3663775474985 -13.332420969754917
rtoes 59.34962040205109
lfemur -89.17334880848404 22.51500609154236 -54.983672496509236
ltibia 74.8769801061479
lfoot -3.7243077012340926 32.44422452401441
ltoes 6.0327278284262675
